<svg xmlns="http://www.w3.org/2000/svg" width="880" height="340" viewBox="0 0 880 340" role="img" aria-labelledby="t d">
<title id="t">STB Petroleum Products originated carloads, four U.S. Class I railroads</title>
<desc id="d">Weekly originated carloads, not crude oil barrels, not an industry total, no WTI test.</desc>
<rect width="880" height="340" fill="white"/>
<text x="58" y="24">Petroleum Products originated carloads (STB EP 724; not crude-by-rail barrels)</text>
<text x="8" y="294.0" font-size="11">0</text><path d="M58 294.0 H866" stroke="#ddd"/>
<text x="8" y="228.0" font-size="11">2077</text><path d="M58 228.0 H866" stroke="#ddd"/>
<text x="8" y="162.0" font-size="11">4155</text><path d="M58 162.0 H866" stroke="#ddd"/>
<text x="8" y="96.0" font-size="11">6232</text><path d="M58 96.0 H866" stroke="#ddd"/>
<text x="8" y="30.0" font-size="11">8310</text><path d="M58 30.0 H866" stroke="#ddd"/>
<text x="58.0" y="310" font-size="11">2017</text>
<text x="123.7" y="310" font-size="11">2018</text>
<text x="209.1" y="310" font-size="11">2019</text>
<text x="294.5" y="310" font-size="11">2020</text>
<text x="381.5" y="310" font-size="11">2021</text>
<text x="466.9" y="310" font-size="11">2022</text>
<text x="552.3" y="310" font-size="11">2023</text>
<text x="637.7" y="310" font-size="11">2024</text>
<text x="723.1" y="310" font-size="11">2025</text>
<text x="810.2" y="310" font-size="11">2026</text>
<polyline points="58.0,104.5 59.6,122.6 61.3,125.4 62.9,148.3 64.6,114.1 66.2,135.1 67.9,149.1 69.5,141.2 71.1,145.9 72.8,132.1 74.4,143.8 76.1,143.9 77.7,158.3 79.3,135.0 81.0,163.0 82.6,166.5 84.3,161.4 85.9,159.0 87.6,162.4 89.2,153.1 90.8,169.0 92.5,150.9 94.1,150.3 95.8,185.1 97.4,174.9 99.1,166.9 100.7,168.4 102.3,165.2 104.0,144.9 105.6,170.8 107.3,135.5 108.9,148.7 110.6,147.1 112.2,136.6 113.8,139.6 115.5,150.5 117.1,126.3 118.8,122.7 120.4,126.1 122.0,106.9 123.7,164.9 125.3,133.6 127.0,120.3 128.6,120.0 130.3,107.7 131.9,113.0 133.5,140.0 135.2,140.1 136.8,141.8 138.5,127.7 140.1,142.5 141.8,124.9 143.4,132.3 145.0,126.3 146.7,129.1 148.3,148.7 150.0,157.0 151.6,122.0 153.3,145.6 154.9,151.3 156.5,128.8 158.2,121.0 159.8,116.4 161.5,111.1 163.1,113.8 164.7,106.6 166.4,103.8 168.0,117.4 169.7,97.1 171.3,116.8 173.0,90.1 174.6,125.1 176.2,89.2 177.9,125.8 179.5,98.0 181.2,87.9 182.8,95.7 184.5,70.3 186.1,66.0 187.7,97.7 189.4,87.2 191.0,105.7 192.7,101.7 194.3,75.0 196.0,76.1 197.6,70.8 199.2,86.3 200.9,63.4 202.5,68.1 204.2,78.6 205.8,69.0 207.4,72.3 209.1,88.8 210.7,92.3 212.4,51.1 214.0,58.3 215.7,54.0 217.3,79.3 218.9,90.0 220.6,97.9 222.2,93.5 223.9,91.8 225.5,116.1 227.2,84.0 228.8,81.5 230.4,76.3 232.1,103.0 233.7,49.6 235.4,63.0 237.0,57.1 238.7,66.8 240.3,69.3 241.9,56.1 243.6,63.5 245.2,66.1 246.9,60.6 248.5,65.1 250.1,55.5 251.8,71.3 253.4,85.9 255.1,66.7 256.7,86.7 258.4,79.5 260.0,89.9 261.6,66.8 263.3,91.1 264.9,90.3 266.6,100.6 268.2,87.0 269.9,102.5 271.5,101.8 273.1,93.0 274.8,82.2 276.4,88.1 278.1,87.6 279.7,78.8 281.3,82.9 283.0,94.1 284.6,55.1 286.3,91.0 287.9,84.3 289.6,82.4 291.2,83.5 292.8,71.0 294.5,119.2 296.1,78.8 297.8,56.6 299.4,107.8 301.1,68.5 302.7,87.2 304.3,86.0 306.0,101.7 307.6,86.6 309.3,78.2 310.9,88.3 312.6,88.7 314.2,91.0 315.8,115.2 317.5,136.7 319.1,121.1 320.8,110.0 322.4,139.2 324.0,134.4 325.7,152.6 327.3,149.1 329.0,163.3 330.6,172.0 332.3,158.4 333.9,168.6 335.5,171.4 337.2,154.6 338.8,141.7 340.5,159.7 342.1,157.1 343.8,143.1 345.4,158.3 347.0,133.8 348.7,143.7 350.3,151.6 352.0,135.2 353.6,157.6 355.3,144.5 356.9,130.2 358.5,143.2 360.2,145.6 361.8,162.9 363.5,148.5 365.1,169.5 366.7,156.5 368.4,157.6 370.0,158.3 371.7,153.9 373.3,162.5 375.0,143.5 376.6,159.6 378.2,147.5 379.9,159.6 381.5,165.6 383.2,162.0 384.8,128.0 386.5,129.5 388.1,157.7 389.7,160.8 391.4,175.0 393.0,180.2 394.7,167.9 396.3,172.7 398.0,153.9 399.6,130.2 401.2,159.1 402.9,162.2 404.5,145.2 406.2,173.9 407.8,159.8 409.4,163.6 411.1,184.3 412.7,156.4 414.4,166.3 416.0,162.3 417.7,173.6 419.3,174.1 420.9,190.6 422.6,169.9 424.2,173.0 425.9,170.4 427.5,157.3 429.2,166.9 430.8,168.2 432.4,177.1 434.1,166.0 435.7,170.8 437.4,163.0 439.0,171.3 440.7,177.9 442.3,164.7 443.9,163.8 445.6,179.4 447.2,189.8 448.9,174.9 450.5,169.4 452.1,180.8 453.8,170.4 455.4,172.4 457.1,159.6 458.7,171.3 460.4,152.0 462.0,147.6 463.6,170.3 465.3,179.3 466.9,189.3 468.6,204.0 470.2,192.7 471.9,184.0 473.5,188.1 475.1,198.3 476.8,179.8 478.4,193.8 480.1,192.4 481.7,177.4 483.3,178.5 485.0,174.8 486.6,187.2 488.3,188.6 489.9,178.4 491.6,206.8 493.2,164.8 494.8,191.1 496.5,192.1 498.1,193.0 499.8,170.4 501.4,180.6 503.1,172.8 504.7,176.3 506.3,160.3 508.0,175.5 509.6,172.3 511.3,164.7 512.9,170.6 514.6,171.8 516.2,178.2 517.8,177.9 519.5,183.9 521.1,175.3 522.8,182.3 524.4,178.5 526.0,174.6 527.7,177.3 529.3,188.3 531.0,165.3 532.6,181.9 534.3,179.1 535.9,178.7 537.5,174.7 539.2,170.4 540.8,175.7 542.5,162.3 544.1,189.2 545.8,168.8 547.4,167.5 549.0,176.6 550.7,179.8 552.3,199.7 554.0,171.3 555.6,158.9 557.3,179.9 558.9,170.6 560.5,171.6 562.2,173.4 563.8,163.3 565.5,174.7 567.1,167.8 568.7,186.4 570.4,199.5 572.0,168.1 573.7,174.7 575.3,178.6 577.0,179.6 578.6,184.3 580.2,157.2 581.9,188.4 583.5,167.2 585.2,168.9 586.8,177.3 588.5,170.2 590.1,176.2 591.7,157.2 593.4,162.9 595.0,188.3 596.7,174.6 598.3,157.6 600.0,176.4 601.6,145.0 603.2,169.0 604.9,151.6 606.5,172.4 608.2,156.5 609.8,162.6 611.4,162.3 613.1,149.6 614.7,165.8 616.4,155.8 618.0,162.9 619.7,152.4 621.3,160.0 622.9,165.8 624.6,174.3 626.2,172.3 627.9,159.8 629.5,178.5 631.2,153.7 632.8,156.5 634.4,153.0 636.1,166.1 637.7,175.2 639.4,160.6 641.0,161.5 642.7,192.0 644.3,156.1 645.9,153.9 647.6,163.6 649.2,171.4 650.9,146.7 652.5,141.9 654.1,166.4 655.8,156.1 657.4,160.7 659.1,140.8 660.7,148.9 662.4,141.8 664.0,148.1 665.6,158.0 667.3,132.6 668.9,125.1 670.6,145.2 672.2,125.0 673.9,138.9 675.5,144.0 677.1,132.5 678.8,141.8 680.4,141.9 682.1,155.8 683.7,142.7 685.3,137.8 687.0,162.5 688.6,131.2 690.3,144.1 691.9,123.0 693.6,129.5 695.2,123.5 696.8,135.8 698.5,133.6 700.1,131.4 701.8,145.4 703.4,141.4 705.1,151.5 706.7,158.2 708.3,148.2 710.0,131.7 711.6,138.9 713.3,129.6 714.9,134.0 716.6,153.6 718.2,141.4 719.8,150.1 721.5,160.2 723.1,171.6 724.8,142.6 726.4,145.5 728.0,161.9 729.7,161.5 731.3,147.8 733.0,173.7 734.6,143.1 736.3,185.7 737.9,155.2 739.5,153.0 741.2,158.6 742.8,155.7 744.5,144.6 746.1,155.5 747.8,151.8 749.4,150.7 751.0,152.3 752.7,155.7 754.3,139.0 756.0,146.1 757.6,141.7 759.3,136.6 760.9,138.9 762.5,149.4 764.2,120.5 765.8,145.3 767.5,151.4 769.1,128.0 770.7,125.4 772.4,144.0 774.0,121.4 775.7,146.0 777.3,119.7 779.0,155.2 780.6,142.5 782.2,133.3 783.9,147.3 785.5,134.4 787.2,139.1 788.8,126.2 790.5,131.7 792.1,130.4 793.7,134.5 795.4,126.5 797.0,122.7 798.7,143.1 800.3,132.2 802.0,151.0 803.6,112.4 805.2,141.9 806.9,146.5 808.5,149.5 810.2,149.7 811.8,123.5 813.4,148.9 815.1,157.1 816.7,139.5 818.4,138.1 820.0,128.0 821.7,133.3 823.3,119.9 824.9,128.9 826.6,128.6 828.2,153.2 829.9,122.4 831.5,118.5 833.2,139.4 834.8,129.2 836.4,141.4 838.1,137.6 839.7,116.3 841.4,123.3 843.0,130.6 844.7,126.9 846.3,120.8 847.9,133.5 849.6,107.1 851.2,125.5 852.9,114.7 854.5,107.5 856.1,120.3 857.8,113.7 859.4,115.1 861.1,121.9 862.7,128.0 864.4,121.0 866.0,112.5" fill="none" stroke="#16745b" stroke-width="1.4"/>
<polyline points="58.0,227.0 59.6,230.2 61.3,224.6 62.9,224.7 64.6,224.8 66.2,227.4 67.9,226.9 69.5,229.0 71.1,220.5 72.8,229.8 74.4,231.5 76.1,224.5 77.7,221.5 79.3,225.8 81.0,228.8 82.6,228.8 84.3,222.4 85.9,226.3 87.6,225.4 89.2,223.0 90.8,227.0 92.5,222.8 94.1,226.7 95.8,245.3 97.4,245.5 99.1,228.8 100.7,217.8 102.3,221.5 104.0,219.0 105.6,222.4 107.3,217.1 108.9,221.8 110.6,223.3 112.2,217.5 113.8,218.3 115.5,235.7 117.1,219.3 118.8,216.7 120.4,217.8 122.0,215.6 123.7,239.8 125.3,223.0 127.0,206.6 128.6,221.6 130.3,211.8 131.9,219.8 133.5,210.4 135.2,215.7 136.8,218.0 138.5,225.5 140.1,226.1 141.8,224.3 143.4,225.9 145.0,223.6 146.7,219.8 148.3,212.9 150.0,221.2 151.6,213.8 153.3,219.3 154.9,207.0 156.5,217.6 158.2,224.1 159.8,218.4 161.5,220.0 163.1,217.8 164.7,213.9 166.4,222.0 168.0,230.2 169.7,213.8 171.3,224.1 173.0,217.1 174.6,226.7 176.2,215.9 177.9,221.8 179.5,226.0 181.2,211.6 182.8,225.5 184.5,204.9 186.1,211.0 187.7,212.0 189.4,201.9 191.0,207.0 192.7,206.1 194.3,207.0 196.0,212.5 197.6,195.4 199.2,204.2 200.9,223.0 202.5,197.1 204.2,207.5 205.8,205.6 207.4,212.3 209.1,220.8 210.7,211.1 212.4,205.6 214.0,198.6 215.7,209.6 217.3,197.2 218.9,202.2 220.6,214.5 222.2,209.2 223.9,207.2 225.5,219.2 227.2,205.2 228.8,215.9 230.4,207.5 232.1,218.3 233.7,209.4 235.4,217.4 237.0,202.6 238.7,203.0 240.3,203.3 241.9,212.1 243.6,205.7 245.2,207.4 246.9,201.7 248.5,209.9 250.1,196.2 251.8,197.6 253.4,213.6 255.1,203.6 256.7,211.4 258.4,206.0 260.0,214.3 261.6,194.3 263.3,210.7 264.9,213.2 266.6,209.5 268.2,221.6 269.9,215.0 271.5,217.1 273.1,223.2 274.8,213.4 276.4,207.8 278.1,209.0 279.7,208.6 281.3,204.5 283.0,201.7 284.6,200.2 286.3,199.4 287.9,218.9 289.6,192.5 291.2,191.3 292.8,188.8 294.5,212.3 296.1,200.0 297.8,197.5 299.4,200.5 301.1,206.9 302.7,209.1 304.3,205.8 306.0,210.8 307.6,207.5 309.3,214.0 310.9,212.3 312.6,197.7 314.2,222.5 315.8,226.3 317.5,223.4 319.1,229.1 320.8,226.6 322.4,236.2 324.0,231.9 325.7,228.9 327.3,225.2 329.0,214.8 330.6,228.3 332.3,224.6 333.9,217.9 335.5,218.7 337.2,218.3 338.8,226.1 340.5,213.1 342.1,219.0 343.8,211.2 345.4,218.5 347.0,216.1 348.7,217.0 350.3,217.5 352.0,236.0 353.6,226.4 355.3,227.2 356.9,225.1 358.5,219.5 360.2,217.4 361.8,210.6 363.5,222.8 365.1,205.1 366.7,224.2 368.4,208.5 370.0,208.2 371.7,204.3 373.3,229.4 375.0,197.0 376.6,196.3 378.2,195.8 379.9,206.3 381.5,213.4 383.2,198.4 384.8,198.8 386.5,194.5 388.1,201.6 389.7,194.5 391.4,210.6 393.0,239.4 394.7,209.2 396.3,205.1 398.0,202.1 399.6,211.7 401.2,209.1 402.9,212.4 404.5,203.5 406.2,196.4 407.8,203.2 409.4,196.8 411.1,202.2 412.7,199.0 414.4,201.2 416.0,201.0 417.7,208.9 419.3,204.6 420.9,207.7 422.6,205.1 424.2,205.9 425.9,211.2 427.5,202.8 429.2,204.6 430.8,204.2 432.4,197.5 434.1,204.1 435.7,203.6 437.4,195.8 439.0,206.3 440.7,205.6 442.3,205.6 443.9,203.6 445.6,204.6 447.2,208.4 448.9,204.3 450.5,222.2 452.1,213.8 453.8,204.4 455.4,202.7 457.1,208.0 458.7,224.6 460.4,206.2 462.0,201.5 463.6,189.3 465.3,222.4 466.9,213.2 468.6,199.0 470.2,199.2 471.9,202.3 473.5,190.1 475.1,203.5 476.8,198.3 478.4,199.5 480.1,210.4 481.7,207.7 483.3,197.9 485.0,210.6 486.6,213.7 488.3,214.1 489.9,202.9 491.6,213.4 493.2,205.5 494.8,209.0 496.5,208.3 498.1,212.3 499.8,207.3 501.4,204.9 503.1,217.5 504.7,197.4 506.3,208.8 508.0,194.9 509.6,202.5 511.3,219.0 512.9,197.6 514.6,203.6 516.2,210.7 517.8,202.7 519.5,204.0 521.1,209.6 522.8,203.9 524.4,202.5 526.0,213.3 527.7,197.3 529.3,209.5 531.0,212.3 532.6,198.9 534.3,203.5 535.9,190.1 537.5,208.2 539.2,195.9 540.8,198.8 542.5,197.3 544.1,215.4 545.8,192.4 547.4,186.6 549.0,191.1 550.7,204.4 552.3,214.9 554.0,206.6 555.6,195.6 557.3,197.4 558.9,186.1 560.5,198.3 562.2,191.3 563.8,201.4 565.5,198.1 567.1,194.4 568.7,199.3 570.4,200.4 572.0,195.9 573.7,199.2 575.3,190.7 577.0,191.3 578.6,201.5 580.2,206.7 581.9,184.7 583.5,187.6 585.2,193.0 586.8,185.8 588.5,197.2 590.1,193.2 591.7,185.0 593.4,187.0 595.0,195.4 596.7,200.1 598.3,185.9 600.0,191.7 601.6,195.6 603.2,195.7 604.9,191.7 606.5,189.5 608.2,190.1 609.8,186.6 611.4,192.4 613.1,187.0 614.7,183.3 616.4,187.7 618.0,179.4 619.7,178.6 621.3,180.9 622.9,173.3 624.6,179.9 626.2,170.6 627.9,178.6 629.5,196.3 631.2,164.0 632.8,171.8 634.4,160.6 636.1,169.5 637.7,193.2 639.4,185.3 641.0,176.0 642.7,197.9 644.3,174.0 645.9,179.5 647.6,187.2 649.2,193.1 650.9,180.5 652.5,187.2 654.1,172.9 655.8,181.1 657.4,177.2 659.1,186.7 660.7,187.5 662.4,183.4 664.0,171.0 665.6,186.3 667.3,187.5 668.9,184.5 670.6,187.4 672.2,181.1 673.9,202.0 675.5,165.3 677.1,177.0 678.8,187.9 680.4,187.9 682.1,194.0 683.7,195.9 685.3,177.9 687.0,179.5 688.6,182.7 690.3,184.4 691.9,178.5 693.6,185.3 695.2,181.5 696.8,182.0 698.5,184.7 700.1,186.5 701.8,173.9 703.4,178.9 705.1,177.3 706.7,183.4 708.3,181.4 710.0,181.8 711.6,178.4 713.3,173.3 714.9,163.4 716.6,182.1 718.2,164.4 719.8,165.1 721.5,167.3 723.1,195.3 724.8,181.1 726.4,181.6 728.0,173.3 729.7,205.7 731.3,173.0 733.0,182.7 734.6,180.7 736.3,191.9 737.9,184.6 739.5,193.0 741.2,197.2 742.8,182.5 744.5,195.8 746.1,193.8 747.8,189.8 749.4,188.2 751.0,187.3 752.7,188.4 754.3,181.7 756.0,182.6 757.6,181.7 759.3,185.0 760.9,181.1 762.5,180.9 764.2,179.8 765.8,184.5 767.5,184.6 769.1,179.8 770.7,185.9 772.4,192.3 774.0,190.2 775.7,191.4 777.3,181.7 779.0,191.0 780.6,181.2 782.2,200.8 783.9,181.5 785.5,183.1 787.2,189.8 788.8,195.6 790.5,182.7 792.1,190.0 793.7,200.0 795.4,186.3 797.0,188.7 798.7,186.4 800.3,191.7 802.0,204.2 803.6,185.9 805.2,177.9 806.9,183.1 808.5,206.1 810.2,186.1 811.8,170.5 813.4,177.4 815.1,174.1 816.7,178.3 818.4,174.7 820.0,182.5 821.7,176.5 823.3,165.2 824.9,186.2 826.6,184.5 828.2,174.1 829.9,177.2 831.5,193.9 833.2,175.9 834.8,179.3 836.4,183.6 838.1,179.0 839.7,180.7 841.4,179.6 843.0,180.1 844.7,198.1 846.3,181.2 847.9,174.1 849.6,180.1 851.2,193.3 852.9,189.3 854.5,175.8 856.1,189.9 857.8,179.1 859.4,183.2 861.1,177.6 862.7,176.9 864.4,174.8 866.0,187.5" fill="none" stroke="#edb958" stroke-width="1.4"/>
<polyline points="58.0,256.8 59.6,256.0 61.3,258.2 62.9,256.6 64.6,255.7 66.2,256.7 67.9,256.3 69.5,255.3 71.1,254.3 72.8,250.3 74.4,253.6 76.1,251.9 77.7,251.7 79.3,251.6 81.0,251.3 82.6,253.0 84.3,250.1 85.9,253.1 87.6,252.7 89.2,251.2 90.8,257.4 92.5,258.2 94.1,253.7 95.8,248.0 97.4,250.9 99.1,242.9 100.7,251.9 102.3,247.3 104.0,250.2 105.6,252.9 107.3,253.8 108.9,252.0 110.6,245.6 112.2,246.8 113.8,252.1 115.5,257.7 117.1,242.3 118.8,245.1 120.4,245.1 122.0,248.6 123.7,252.8 125.3,256.5 127.0,250.0 128.6,244.5 130.3,246.7 131.9,250.9 133.5,254.4 135.2,254.0 136.8,254.8 138.5,255.2 140.1,255.4 141.8,254.1 143.4,254.4 145.0,255.6 146.7,259.8 148.3,259.8 150.0,257.1 151.6,249.9 153.3,255.2 154.9,251.3 156.5,253.1 158.2,255.2 159.8,252.6 161.5,257.4 163.1,249.0 164.7,253.6 166.4,253.8 168.0,258.3 169.7,252.7 171.3,252.0 173.0,247.8 174.6,249.6 176.2,253.4 177.9,246.8 179.5,249.8 181.2,251.3 182.8,247.6 184.5,244.7 186.1,248.5 187.7,245.5 189.4,253.3 191.0,246.2 192.7,247.7 194.3,242.7 196.0,249.3 197.6,250.5 199.2,249.8 200.9,254.9 202.5,245.3 204.2,246.9 205.8,244.6 207.4,244.9 209.1,252.9 210.7,252.3 212.4,246.0 214.0,250.2 215.7,252.0 217.3,253.8 218.9,253.0 220.6,250.3 222.2,252.7 223.9,256.8 225.5,258.4 227.2,255.5 228.8,256.6 230.4,253.0 232.1,254.5 233.7,252.0 235.4,255.3 237.0,253.1 238.7,254.0 240.3,253.2 241.9,254.6 243.6,256.5 245.2,253.7 246.9,250.2 248.5,254.4 250.1,253.4 251.8,254.5 253.4,258.0 255.1,249.1 256.7,252.7 258.4,250.1 260.0,246.1 261.6,254.7 263.3,255.8 264.9,252.4 266.6,249.0 268.2,256.6 269.9,247.5 271.5,248.0 273.1,246.8 274.8,243.5 276.4,247.4 278.1,243.4 279.7,252.3 281.3,252.1 283.0,250.3 284.6,253.8 286.3,251.9 287.9,256.7 289.6,247.2 291.2,247.2 292.8,249.9 294.5,251.2 296.1,250.0 297.8,245.0 299.4,250.4 301.1,252.6 302.7,246.9 304.3,250.5 306.0,247.0 307.6,243.1 309.3,242.9 310.9,256.1 312.6,254.0 314.2,248.6 315.8,253.6 317.5,261.2 319.1,260.6 320.8,258.7 322.4,257.1 324.0,260.9 325.7,259.8 327.3,255.0 329.0,252.5 330.6,253.7 332.3,248.3 333.9,250.9 335.5,249.3 337.2,247.2 338.8,248.9 340.5,252.4 342.1,246.7 343.8,247.2 345.4,249.6 347.0,253.9 348.7,252.9 350.3,250.5 352.0,248.4 353.6,247.9 355.3,250.9 356.9,256.5 358.5,253.7 360.2,256.4 361.8,254.0 363.5,250.2 365.1,250.8 366.7,253.8 368.4,253.2 370.0,257.1 371.7,252.8 373.3,258.5 375.0,251.5 376.6,250.1 378.2,253.8 379.9,255.7 381.5,249.5 383.2,251.4 384.8,246.8 386.5,245.8 388.1,247.3 389.7,247.0 391.4,252.9 393.0,253.3 394.7,248.0 396.3,245.4 398.0,252.7 399.6,251.5 401.2,250.0 402.9,255.6 404.5,255.6 406.2,252.9 407.8,255.7 409.4,257.0 411.1,257.4 412.7,253.4 414.4,253.4 416.0,249.3 417.7,258.1 419.3,249.1 420.9,251.1 422.6,249.5 424.2,251.6 425.9,256.2 427.5,252.8 429.2,253.1 430.8,254.6 432.4,255.1 434.1,254.4 435.7,254.6 437.4,252.1 439.0,249.8 440.7,254.4 442.3,248.9 443.9,254.5 445.6,248.0 447.2,251.4 448.9,251.5 450.5,252.6 452.1,253.9 453.8,254.6 455.4,250.5 457.1,253.6 458.7,251.0 460.4,246.2 462.0,250.6 463.6,252.1 465.3,256.1 466.9,253.4 468.6,253.7 470.2,249.5 471.9,250.2 473.5,251.7 475.1,249.8 476.8,249.9 478.4,253.7 480.1,253.6 481.7,257.1 483.3,257.4 485.0,256.2 486.6,258.8 488.3,263.9 489.9,258.4 491.6,256.9 493.2,254.4 494.8,257.0 496.5,256.6 498.1,254.3 499.8,254.1 501.4,253.9 503.1,254.8 504.7,252.6 506.3,253.0 508.0,258.6 509.6,256.4 511.3,261.7 512.9,253.8 514.6,253.9 516.2,252.9 517.8,250.9 519.5,252.3 521.1,253.9 522.8,256.7 524.4,255.4 526.0,257.3 527.7,257.6 529.3,254.2 531.0,255.0 532.6,254.3 534.3,253.0 535.9,256.5 537.5,254.2 539.2,255.5 540.8,251.6 542.5,255.1 544.1,260.3 545.8,250.8 547.4,250.8 549.0,250.8 550.7,254.8 552.3,260.5 554.0,250.9 555.6,250.3 557.3,247.6 558.9,248.7 560.5,249.7 562.2,248.5 563.8,250.3 565.5,248.9 567.1,251.9 568.7,255.2 570.4,255.0 572.0,251.4 573.7,255.1 575.3,254.7 577.0,253.4 578.6,254.4 580.2,257.9 581.9,253.4 583.5,255.0 585.2,259.2 586.8,257.3 588.5,256.6 590.1,250.1 591.7,250.7 593.4,252.3 595.0,249.6 596.7,251.8 598.3,254.4 600.0,253.1 601.6,251.2 603.2,250.5 604.9,255.0 606.5,250.5 608.2,250.4 609.8,245.1 611.4,247.9 613.1,247.3 614.7,248.8 616.4,247.8 618.0,249.0 619.7,242.7 621.3,251.9 622.9,254.3 624.6,255.2 626.2,250.3 627.9,252.1 629.5,252.3 631.2,249.6 632.8,245.9 634.4,250.1 636.1,242.4 637.7,253.0 639.4,247.6 641.0,245.3 642.7,247.3 644.3,244.7 645.9,242.8 647.6,244.8 649.2,246.2 650.9,253.0 652.5,253.7 654.1,252.6 655.8,253.4 657.4,253.2 659.1,255.1 660.7,257.0 662.4,255.9 664.0,251.9 665.6,255.9 667.3,253.1 668.9,254.7 670.6,252.3 672.2,248.3 673.9,252.2 675.5,248.4 677.1,247.6 678.8,249.4 680.4,245.9 682.1,255.5 683.7,249.4 685.3,253.3 687.0,249.0 688.6,246.7 690.3,250.9 691.9,248.8 693.6,248.1 695.2,242.2 696.8,245.6 698.5,246.1 700.1,251.5 701.8,247.9 703.4,243.3 705.1,244.7 706.7,242.4 708.3,244.0 710.0,247.0 711.6,241.2 713.3,240.2 714.9,241.1 716.6,250.5 718.2,242.2 719.8,244.9 721.5,241.8 723.1,250.0 724.8,244.7 726.4,244.2 728.0,240.2 729.7,246.7 731.3,252.2 733.0,240.2 734.6,244.4 736.3,249.5 737.9,245.4 739.5,251.4 741.2,249.4 742.8,246.2 744.5,248.5 746.1,256.2 747.8,253.0 749.4,257.5 751.0,254.2 752.7,253.0 754.3,256.8 756.0,250.8 757.6,248.3 759.3,246.0 760.9,247.8 762.5,250.0 764.2,250.2 765.8,250.0 767.5,252.4 769.1,243.9 770.7,243.4 772.4,245.6 774.0,247.9 775.7,244.5 777.3,250.5 779.0,249.0 780.6,249.0 782.2,251.3 783.9,249.8 785.5,249.6 787.2,250.4 788.8,249.6 790.5,245.3 792.1,246.8 793.7,253.6 795.4,251.1 797.0,249.0 798.7,250.6 800.3,246.4 802.0,245.5 803.6,240.1 805.2,243.0 806.9,247.2 808.5,253.8 810.2,246.6 811.8,242.1 813.4,241.6 815.1,249.3 816.7,247.4 818.4,242.1 820.0,246.2 821.7,247.7 823.3,245.7 824.9,246.2 826.6,252.0 828.2,252.2 829.9,249.7 831.5,247.9 833.2,245.9 834.8,244.3 836.4,247.4 838.1,244.0 839.7,246.8 841.4,246.2 843.0,248.6 844.7,249.0 846.3,248.6 847.9,249.4 849.6,247.6 851.2,247.5 852.9,252.2 854.5,246.0 856.1,251.0 857.8,250.4 859.4,247.3 861.1,251.8 862.7,250.3 864.4,247.9 866.0,246.2" fill="none" stroke="#78b7ed" stroke-width="1.4"/>
<polyline points="58.0,264.6 59.6,261.8 61.3,263.2 62.9,264.6 64.6,266.0 66.2,263.2 67.9,261.2 69.5,265.9 71.1,260.1 72.8,264.7 74.4,265.9 76.1,264.9 77.7,262.8 79.3,264.4 81.0,264.6 82.6,263.5 84.3,258.7 85.9,262.6 87.6,265.9 89.2,262.9 90.8,259.9 92.5,261.9 94.1,262.8 95.8,263.4 97.4,261.7 99.1,261.1 100.7,262.1 102.3,260.9 104.0,261.6 105.6,262.3 107.3,261.4 108.9,262.1 110.6,270.8 112.2,264.3 113.8,262.9 115.5,267.2 117.1,261.6 118.8,263.6 120.4,262.9 122.0,260.4 123.7,270.0 125.3,270.8 127.0,263.5 128.6,268.7 130.3,261.6 131.9,266.4 133.5,260.1 135.2,262.4 136.8,262.8 138.5,267.9 140.1,269.0 141.8,268.3 143.4,268.0 145.0,268.9 146.7,268.0 148.3,266.8 150.0,263.4 151.6,263.6 153.3,263.0 154.9,261.3 156.5,260.5 158.2,257.6 159.8,262.0 161.5,261.8 163.1,257.5 164.7,263.3 166.4,260.3 168.0,265.4 169.7,258.3 171.3,260.5 173.0,260.1 174.6,262.8 176.2,260.6 177.9,260.5 179.5,262.5 181.2,260.1 182.8,263.4 184.5,260.5 186.1,263.3 187.7,261.4 189.4,265.0 191.0,270.0 192.7,266.5 194.3,262.4 196.0,263.8 197.6,263.9 199.2,266.9 200.9,270.1 202.5,265.3 204.2,262.5 205.8,260.8 207.4,264.4 209.1,269.2 210.7,268.6 212.4,265.3 214.0,265.7 215.7,265.4 217.3,273.3 218.9,263.5 220.6,268.9 222.2,274.1 223.9,270.7 225.5,272.5 227.2,276.9 228.8,274.7 230.4,273.3 232.1,270.3 233.7,269.0 235.4,267.9 237.0,265.4 238.7,267.2 240.3,266.8 241.9,267.9 243.6,264.5 245.2,266.2 246.9,269.1 248.5,270.0 250.1,263.1 251.8,266.8 253.4,266.0 255.1,270.4 256.7,270.3 258.4,267.4 260.0,266.5 261.6,264.9 263.3,263.9 264.9,263.6 266.6,267.4 268.2,271.5 269.9,265.3 271.5,262.8 273.1,260.7 274.8,265.6 276.4,265.0 278.1,265.7 279.7,264.6 281.3,270.9 283.0,266.4 284.6,265.8 286.3,264.0 287.9,268.4 289.6,257.9 291.2,263.5 292.8,261.9 294.5,267.1 296.1,264.5 297.8,263.8 299.4,260.9 301.1,260.5 302.7,256.9 304.3,263.5 306.0,257.7 307.6,256.7 309.3,257.9 310.9,258.2 312.6,263.6 314.2,266.0 315.8,267.2 317.5,262.0 319.1,265.1 320.8,265.7 322.4,271.0 324.0,264.7 325.7,261.0 327.3,262.9 329.0,265.0 330.6,271.6 332.3,272.7 333.9,274.3 335.5,276.2 337.2,274.2 338.8,276.9 340.5,273.6 342.1,271.9 343.8,275.4 345.4,272.8 347.0,268.6 348.7,268.7 350.3,267.0 352.0,269.2 353.6,271.9 355.3,268.3 356.9,270.8 358.5,268.8 360.2,273.6 361.8,264.2 363.5,269.4 365.1,271.3 366.7,273.8 368.4,270.6 370.0,270.6 371.7,273.0 373.3,281.1 375.0,270.8 376.6,267.5 378.2,267.6 379.9,275.6 381.5,275.6 383.2,267.0 384.8,266.3 386.5,266.1 388.1,267.8 389.7,268.4 391.4,268.2 393.0,269.4 394.7,270.6 396.3,270.6 398.0,269.5 399.6,270.0 401.2,270.8 402.9,273.1 404.5,267.7 406.2,266.8 407.8,262.9 409.4,267.2 411.1,263.5 412.7,265.4 414.4,261.6 416.0,266.2 417.7,266.7 419.3,264.8 420.9,263.9 422.6,265.1 424.2,264.6 425.9,266.2 427.5,258.5 429.2,259.8 430.8,260.3 432.4,262.2 434.1,261.4 435.7,258.7 437.4,259.1 439.0,265.9 440.7,259.9 442.3,257.5 443.9,261.7 445.6,267.1 447.2,267.7 448.9,266.7 450.5,263.6 452.1,262.5 453.8,264.6 455.4,267.1 457.1,263.8 458.7,274.3 460.4,266.3 462.0,261.3 463.6,262.5 465.3,271.2 466.9,268.3 468.6,267.3 470.2,262.4 471.9,262.1 473.5,265.5 475.1,266.4 476.8,268.5 478.4,262.7 480.1,262.7 481.7,264.8 483.3,261.4 485.0,266.3 486.6,262.1 488.3,267.8 489.9,264.9 491.6,263.8 493.2,262.5 494.8,265.2 496.5,260.5 498.1,260.9 499.8,262.9 501.4,261.1 503.1,261.1 504.7,259.7 506.3,264.5 508.0,260.2 509.6,261.4 511.3,264.8 512.9,258.8 514.6,259.9 516.2,260.7 517.8,265.1 519.5,265.6 521.1,262.3 522.8,261.2 524.4,265.5 526.0,266.1 527.7,261.1 529.3,263.8 531.0,249.3 532.6,261.2 534.3,260.3 535.9,259.6 537.5,259.8 539.2,259.8 540.8,261.5 542.5,264.9 544.1,269.5 545.8,262.4 547.4,255.1 549.0,261.9 550.7,263.2 552.3,265.7 554.0,259.4 555.6,254.2 557.3,252.4 558.9,254.3 560.5,255.5 562.2,257.8 563.8,256.5 565.5,251.3 567.1,258.7 568.7,264.2 570.4,263.2 572.0,261.9 573.7,260.3 575.3,268.7 577.0,264.2 578.6,261.3 580.2,256.3 581.9,263.0 583.5,264.6 585.2,259.0 586.8,261.2 588.5,263.7 590.1,261.6 591.7,263.0 593.4,263.6 595.0,263.9 596.7,268.5 598.3,264.9 600.0,264.1 601.6,259.8 603.2,262.6 604.9,261.5 606.5,264.3 608.2,263.8 609.8,262.2 611.4,264.1 613.1,262.0 614.7,263.3 616.4,261.6 618.0,262.5 619.7,266.1 621.3,267.2 622.9,265.6 624.6,263.9 626.2,261.8 627.9,264.6 629.5,274.4 631.2,262.4 632.8,264.6 634.4,269.3 636.1,266.4 637.7,270.7 639.4,266.8 641.0,263.6 642.7,266.9 644.3,262.5 645.9,265.7 647.6,266.6 649.2,264.5 650.9,263.4 652.5,265.5 654.1,268.6 655.8,269.3 657.4,264.3 659.1,264.8 660.7,265.0 662.4,264.5 664.0,263.3 665.6,264.4 667.3,265.1 668.9,262.2 670.6,262.8 672.2,261.4 673.9,265.0 675.5,265.5 677.1,268.0 678.8,265.9 680.4,262.9 682.1,267.8 683.7,264.9 685.3,265.5 687.0,266.5 688.6,265.3 690.3,268.8 691.9,267.7 693.6,267.8 695.2,266.2 696.8,270.1 698.5,264.9 700.1,265.3 701.8,266.3 703.4,268.8 705.1,264.5 706.7,264.9 708.3,264.5 710.0,266.2 711.6,265.4 713.3,263.4 714.9,263.5 716.6,269.9 718.2,263.1 719.8,262.9 721.5,263.9 723.1,269.2 724.8,262.8 726.4,263.2 728.0,262.5 729.7,265.2 731.3,261.3 733.0,264.0 734.6,260.1 736.3,260.9 737.9,260.6 739.5,263.5 741.2,265.9 742.8,265.5 744.5,265.9 746.1,269.4 747.8,270.8 749.4,272.9 751.0,273.0 752.7,273.7 754.3,270.0 756.0,270.1 757.6,268.8 759.3,271.1 760.9,270.1 762.5,268.7 764.2,268.1 765.8,267.3 767.5,269.3 769.1,269.3 770.7,267.1 772.4,266.7 774.0,272.4 775.7,273.4 777.3,273.3 779.0,270.4 780.6,267.8 782.2,272.5 783.9,272.2 785.5,270.4 787.2,268.1 788.8,269.9 790.5,270.5 792.1,272.0 793.7,265.9 795.4,268.0 797.0,271.1 798.7,268.3 800.3,269.3 802.0,271.1 803.6,269.3 805.2,269.3 806.9,270.0 808.5,273.9 810.2,271.3 811.8,265.8 813.4,271.5 815.1,269.6 816.7,274.3 818.4,273.2 820.0,271.0 821.7,268.7 823.3,266.1 824.9,271.1 826.6,271.3 828.2,271.7 829.9,269.6 831.5,274.6 833.2,272.6 834.8,268.6 836.4,270.6 838.1,270.8 839.7,268.9 841.4,268.7 843.0,274.2 844.7,276.2 846.3,269.5 847.9,267.9 849.6,271.3 851.2,268.0 852.9,271.7 854.5,270.2 856.1,267.7 857.8,266.7 859.4,266.1 861.1,268.4 862.7,267.7 864.4,268.0 866.0,265.9" fill="none" stroke="#c47c5a" stroke-width="1.4"/>
<rect x="620" y="38" width="12" height="12" fill="#16745b"/>
<text x="636" y="49" font-size="12">BNSF originated</text>
<rect x="620" y="54" width="12" height="12" fill="#edb958"/>
<text x="636" y="65" font-size="12">UP originated</text>
<rect x="620" y="70" width="12" height="12" fill="#78b7ed"/>
<text x="636" y="81" font-size="12">CSX originated</text>
<rect x="620" y="86" width="12" height="12" fill="#c47c5a"/>
<text x="636" y="97" font-size="12">NS originated</text>
<text x="58" y="328" font-size="11">Source: Surface Transportation Board, EP 724 consolidated file. Current vintage; weekly first-release dates not restored. Not fuel use.</text></svg>