<svg xmlns="http://www.w3.org/2000/svg" width="860" height="456" role="img">
<text x="64" y="16" font-size="13">LA항 빈수출 비중 S_m = 100 x Empty/(Empty+Loaded) — 월별 TEU (v2, 2015-01~2026-07)</text>
<line x1="64" y1="26" x2="840" y2="26" stroke="#ccc"/><text x="4" y="30" font-size="10">85.6%</text>
<line x1="64" y1="111.0" x2="840" y2="111.0" stroke="#ccc"/><text x="4" y="115.0" font-size="10">63.5%</text>
<line x1="64" y1="196" x2="840" y2="196" stroke="#ccc"/><text x="4" y="200" font-size="10">41.4%</text>
<line x1="64" y1="256" x2="840" y2="256" stroke="#ccc"/><text x="4" y="260" font-size="10">387,678.7TEU</text>
<line x1="64" y1="341.0" x2="840" y2="341.0" stroke="#ccc"/><text x="4" y="345.0" font-size="10">217,541.6TEU</text>
<line x1="64" y1="426" x2="840" y2="426" stroke="#ccc"/><text x="4" y="430" font-size="10">47,404.6TEU</text>
<text x="64.0" y="428" font-size="10">2015</text>
<text x="131.5" y="428" font-size="10">2016</text>
<text x="199.0" y="428" font-size="10">2017</text>
<text x="266.4" y="428" font-size="10">2018</text>
<text x="333.9" y="428" font-size="10">2019</text>
<text x="401.4" y="428" font-size="10">2020</text>
<text x="468.9" y="428" font-size="10">2021</text>
<text x="536.3" y="428" font-size="10">2022</text>
<text x="603.8" y="428" font-size="10">2023</text>
<text x="671.3" y="428" font-size="10">2024</text>
<text x="738.8" y="428" font-size="10">2025</text>
<text x="806.3" y="428" font-size="10">2026</text>
<text x="840.0" y="428" font-size="10" text-anchor="end">2026-07</text>
<path d="M64.0,153.5L69.6,179.4L75.2,129.3L80.9,143.8L86.5,146.1L92.1,131.1L97.7,126.2L103.4,120.5L109.0,108.6L114.6,126.8L120.2,130.6L125.9,141.5L131.5,118.1L137.1,141.1L142.7,164.5L148.3,154.1L154.0,144.8L159.6,144.5L165.2,135.8L170.8,127.2L176.5,131.1L182.1,136.2L187.7,129.5L193.3,132.5L199.0,127.4L204.6,159.1L210.2,153.6L215.8,152.5L221.4,146.1L227.1,131.3L232.7,132.0L238.3,121.8L243.9,105.8L249.6,128.7L255.2,123.2L260.8,124.5L266.4,123.8L272.1,152.9L277.7,177.6L283.3,160.8L288.9,155.1L294.6,142.7L300.2,141.1L305.8,132.5L311.4,123.4L317.0,119.8L322.7,120.1L328.3,105.8L333.9,107.7L339.5,131.5L345.2,150.4L350.8,137.6L356.4,136.3L362.0,119.9L367.7,116.7L373.3,107.2L378.9,108.3L384.5,117.3L390.1,123.5L395.8,108.6L401.4,120.4L407.0,165.5L412.6,184.3L418.3,129.8L423.9,116.4L429.5,101.4L435.1,92.3L440.8,84.3L446.4,93.8L452.0,88.4M463.2,81.7L468.9,86.0L474.5,71.7L480.1,72.5L485.7,68.0L491.4,60.3L497.0,61.5L502.6,54.1L508.2,54.3L513.9,37.7L519.5,57.7L525.1,49.0L530.7,39.0L536.3,58.8L542.0,55.8L547.6,63.9L553.2,60.2L558.8,74.3L564.5,55.0L570.1,60.5L575.7,69.1L581.3,52.7L587.0,72.8L592.6,76.4L598.2,71.2L603.8,84.3L609.4,104.7L615.1,97.7L620.7,70.3L626.3,77.1L631.9,75.7L637.6,103.5L643.2,93.2L648.8,101.5L654.4,102.7L660.1,84.2L665.7,94.4L671.3,88.3L676.9,107.7L682.6,124.0L688.2,115.5L693.8,104.5L699.4,88.9L705.0,71.5L710.7,74.7L716.3,67.6L721.9,77.5L727.5,82.7L733.2,63.0L738.8,69.6L744.4,78.8L750.0,91.3L755.7,93.2L761.3,98.9L766.9,85.7L772.5,68.9L778.1,78.7L783.8,75.0L789.4,84.2L795.0,87.0L800.6,83.9L806.3,73.4L811.9,85.5L817.5,107.3L823.1,84.6L828.8,76.6L834.4,73.6L840.0,64.0" fill="none" stroke="#1d4ed8" stroke-width="1.5"/>
<path d="M64.0,381.2L69.6,394.3L75.2,346.2L80.9,360.9L86.5,358.7L92.1,349.5L97.7,349.4L103.4,337.1L109.0,338.7L114.6,351.2L120.2,350.1L125.9,367.8L131.5,348.3L137.1,357.8L142.7,371.4L148.3,370.8L154.0,351.7L159.6,364.6L165.2,361.8L170.8,338.4L176.5,348.4L182.1,339.8L187.7,323.8L193.3,336.4L199.0,331.9L204.6,369.0L210.2,344.2L215.8,362.0L221.4,348.7L227.1,348.4L232.7,342.7L238.3,327.0L243.9,331.3L249.6,346.5L255.2,314.5L260.8,335.3L266.4,336.5L272.1,362.4L277.7,379.6L283.3,365.6L288.9,358.4L294.6,358.7L300.2,344.3L305.8,338.0L311.4,338.3L317.0,312.6L322.7,329.9L328.3,313.3L333.9,318.9L339.5,350.7L345.2,359.3L350.8,348.5L356.4,339.3L362.0,340.0L367.7,318.2L373.3,316.9L378.9,332.6L384.5,336.1L390.1,344.8L395.8,333.4L401.4,333.7L407.0,384.3L412.6,401.3L418.3,357.5L423.9,364.3L429.5,343.5L435.1,313.4L440.8,293.1L446.4,311.5L452.0,286.8M463.2,301.7L468.9,310.6L474.5,307.8L480.1,279.2L485.7,280.9L491.4,269.1L497.0,294.4L502.6,284.9L508.2,267.7L513.9,270.5L519.5,282.0L525.1,288.1L530.7,285.7L536.3,281.4L542.0,282.1L547.6,275.3L553.2,285.2L558.8,279.5L564.5,282.6L570.1,279.4L575.7,301.1L581.3,306.5L587.0,325.8L592.6,330.9L598.2,313.6L603.8,327.4L609.4,372.8L615.1,350.3L620.7,323.8L626.3,316.9L631.9,306.0L637.6,345.2L643.2,316.3L648.8,332.9L654.4,333.8L660.1,316.4L665.7,321.7L671.3,306.2L676.9,329.9L682.6,340.7L688.2,339.7L693.8,331.9L699.4,311.8L705.0,288.3L710.7,285.7L716.3,279.8L721.9,290.3L727.5,298.9L733.2,274.9L738.8,286.3L744.4,310.3L750.0,315.4L755.7,312.5L761.3,329.8L766.9,302.0L772.5,272.8L778.1,286.8L783.8,295.8L789.4,302.1L795.0,318.8L800.6,320.3L806.3,306.8L811.9,312.9L817.5,330.0L823.1,298.2L828.8,308.3L834.4,277.0L840.0,275.5" fill="none" stroke="#b45309" stroke-width="1.2"/>
<path d="M64.0,387.6L69.6,383.8L75.2,377.0L80.9,376.9L86.5,373.3L92.1,378.0L97.7,381.5L103.4,377.8L109.0,387.6L114.6,382.3L120.2,378.7L125.9,384.1L131.5,386.6L137.1,376.5L142.7,370.1L148.3,377.7L154.0,368.5L159.6,379.5L165.2,383.5L170.8,373.2L176.5,377.2L182.1,366.5L187.7,361.1L193.3,367.3L199.0,368.5L204.6,372.1L210.2,353.9L215.8,370.9L221.4,364.9L227.1,377.0L232.7,372.3L238.3,370.1L243.9,385.5L249.6,377.6L255.2,360.8L260.8,373.3L266.4,374.7L272.1,371.0L277.7,367.9L283.3,367.4L288.9,365.4L294.6,376.0L300.2,365.8L305.8,368.5L311.4,376.2L317.0,362.8L322.7,373.5L328.3,375.8L333.9,377.2L339.5,378.5L345.2,370.3L350.8,372.0L356.4,366.1L362.0,380.1L367.7,369.1L373.3,376.6L378.9,384.4L384.5,379.6L390.1,380.5L395.8,384.6L401.4,375.6L407.0,382.5L412.6,389.2L418.3,384.6L423.9,397.5L429.5,394.9L435.1,386.6L440.8,384.0L446.4,384.5L452.0,377.8M463.2,389.6L468.9,390.1L474.5,399.1L480.1,388.3L485.7,392.5L491.4,394.8L497.0,401.7L502.6,404.0L508.2,399.1L513.9,411.9L519.5,400.6L525.1,408.3L530.7,414.3L536.3,399.6L542.0,402.0L547.6,393.8L553.2,399.8L558.8,386.9L564.5,402.8L570.1,397.8L575.7,398.6L581.3,410.9L587.0,404.9L592.6,404.7L598.2,401.5L603.8,398.4L609.4,408.5L615.1,400.6L620.7,405.6L626.3,398.9L631.9,395.7L637.6,394.5L643.2,387.2L648.8,389.4L654.4,389.1L660.1,393.9L665.7,388.9L671.3,386.5L676.9,383.4L682.6,377.4L688.2,383.2L693.8,386.8L699.4,388.5L705.0,392.3L710.7,388.9L716.3,392.4L721.9,388.4L727.5,387.7L733.2,394.5L738.8,393.1L744.4,395.1L750.0,388.2L755.7,385.5L761.3,389.6L766.9,386.7L772.5,389.0L778.1,386.0L783.8,392.4L789.4,387.9L795.0,392.9L800.6,395.7L806.3,397.6L811.9,391.4L817.5,383.7L823.1,385.9L828.8,395.9L834.4,386.6L840.0,393.8" fill="none" stroke="#0d9488" stroke-width="1.2"/>
<text x="64" y="448" font-size="11">아래: Empty Exports(주황) vs Loaded Exports(청록), TEU. 2020-11 공백(원본 Total 셀 오타 격리). 출처: Port of Los Angeles (credit).</text>
</svg>
