<svg xmlns="http://www.w3.org/2000/svg" width="860" height="470" role="img">
<text x="64" y="16" font-size="13">LA항 빈수출 비중 S_m = 100 x Empty/(Empty+Loaded) — 월별 TEU (2015-01~2026-07)</text>
<line x1="64" y1="26" x2="840" y2="26" stroke="#ccc"/><text x="4" y="30" font-size="10">85.6%</text>
<line x1="64" y1="111.0" x2="840" y2="111.0" stroke="#ccc"/><text x="4" y="115.0" font-size="10">63.5%</text>
<line x1="64" y1="196" x2="840" y2="196" stroke="#ccc"/><text x="4" y="200" font-size="10">41.4%</text>
<line x1="64" y1="256" x2="840" y2="256" stroke="#ccc"/><text x="4" y="260" font-size="10">387,678.7TEU</text>
<line x1="64" y1="341.0" x2="840" y2="341.0" stroke="#ccc"/><text x="4" y="345.0" font-size="10">217,541.6TEU</text>
<line x1="64" y1="426" x2="840" y2="426" stroke="#ccc"/><text x="4" y="430" font-size="10">47,404.6TEU</text>
<text x="64.0" y="464" font-size="10">2015</text>
<text x="131.97080291970804" y="464" font-size="10">2016</text>
<text x="199.94160583941607" y="464" font-size="10">2017</text>
<text x="267.9124087591241" y="464" font-size="10">2018</text>
<text x="335.88321167883214" y="464" font-size="10">2019</text>
<text x="403.8540145985401" y="464" font-size="10">2020</text>
<text x="466.16058394160586" y="464" font-size="10">2021</text>
<text x="534.1313868613138" y="464" font-size="10">2022</text>
<text x="602.1021897810219" y="464" font-size="10">2023</text>
<text x="670.07299270073" y="464" font-size="10">2024</text>
<text x="738.043795620438" y="464" font-size="10">2025</text>
<text x="806.014598540146" y="464" font-size="10">2026</text>
<path d="M64.0,153.5L69.7,179.4L75.3,129.3L81.0,143.8L86.7,146.1L92.3,131.1L98.0,126.2L103.6,120.5L109.3,108.6L115.0,126.8L120.6,130.6L126.3,141.5L132.0,118.1L137.6,141.1L143.3,164.5L149.0,154.1L154.6,144.8L160.3,144.5L166.0,135.8L171.6,127.2L177.3,131.1L182.9,136.2L188.6,129.5L194.3,132.5L199.9,127.4L205.6,159.1L211.3,153.6L216.9,152.5L222.6,146.1L228.3,131.3L233.9,132.0L239.6,121.8L245.3,105.8L250.9,128.7L256.6,123.2L262.2,124.5L267.9,123.8L273.6,152.9L279.2,177.6L284.9,160.8L290.6,155.1L296.2,142.7L301.9,141.1L307.6,132.5L313.2,123.4L318.9,119.8L324.6,120.1L330.2,105.8L335.9,107.7L341.5,131.5L347.2,150.4L352.9,137.6L358.5,136.3L364.2,119.9L369.9,116.7L375.5,107.2L381.2,108.3L386.9,117.3L392.5,123.5L398.2,108.6L403.9,120.4L409.5,165.5L415.2,184.3L420.8,129.8L426.5,116.4L432.2,101.4L437.8,92.3L443.5,84.3L449.2,93.8L454.8,88.4M460.5,81.7L466.2,86.0L471.8,71.7L477.5,72.5L483.2,68.0L488.8,60.3L494.5,61.5L500.1,54.1L505.8,54.3L511.5,37.7L517.1,57.7L522.8,49.0L528.5,39.0L534.1,58.8L539.8,55.8L545.5,63.9L551.1,60.2L556.8,74.3L562.5,55.0L568.1,60.5L573.8,69.1L579.4,52.7L585.1,72.8L590.8,76.4L596.4,71.2L602.1,84.3L607.8,104.7L613.4,97.7L619.1,70.3L624.8,77.1L630.4,75.7L636.1,103.5L641.8,93.2L647.4,101.5L653.1,102.7L658.7,84.2L664.4,94.4L670.1,88.3L675.7,107.7L681.4,124.0L687.1,115.5L692.7,104.5L698.4,88.9L704.1,71.5L709.7,74.7L715.4,67.6L721.1,77.5L726.7,82.7L732.4,63.0L738.0,69.6L743.7,78.8L749.4,91.3L755.0,93.2L760.7,98.9L766.4,85.7L772.0,68.9L777.7,78.7L783.4,75.0L789.0,84.2L794.7,87.0L800.4,83.9L806.0,73.4L811.7,85.5L817.3,107.3L823.0,84.6L828.7,76.6L834.3,73.6L840.0,64.0" fill="none" stroke="#1d4ed8" stroke-width="1.5"/>
<path d="M64.0,381.2L66.8,394.3L69.6,346.2L72.5,360.9L75.3,358.7L78.1,349.5L80.9,349.4L83.8,337.1L86.6,338.7L89.4,351.2L92.2,350.1L95.0,367.8L97.9,348.3L100.7,357.8L103.5,371.4L106.3,370.8L109.1,351.7L112.0,364.6L114.8,361.8L117.6,338.4L120.4,348.4L123.3,339.8L126.1,323.8L128.9,336.4L131.7,331.9L134.5,369.0L137.4,344.2L140.2,362.0L143.0,348.7L145.8,348.4L148.7,342.7L151.5,327.0L154.3,331.3L157.1,346.5L159.9,314.5L162.8,335.3L165.6,336.5L168.4,362.4L171.2,379.6L174.1,365.6L176.9,358.4L179.7,358.7L182.5,344.3L185.3,338.0L188.2,338.3L191.0,312.6L193.8,329.9L196.6,313.3L199.4,318.9L202.3,350.7L205.1,359.3L207.9,348.5L210.7,339.3L213.6,340.0L216.4,318.2L219.2,316.9L222.0,332.6L224.8,336.1L227.7,344.8L230.5,333.4L233.3,333.7L236.1,384.3L239.0,401.3L241.8,357.5L244.6,364.3L247.4,343.5L250.2,313.4L253.1,293.1L255.9,311.5L258.7,286.8M261.5,301.7L264.3,310.6L267.2,307.8L270.0,279.2L272.8,280.9L275.6,269.1L278.5,294.4L281.3,284.9L284.1,267.7L286.9,270.5L289.7,282.0L292.6,288.1L295.4,285.7L298.2,281.4L301.0,282.1L303.9,275.3L306.7,285.2L309.5,279.5L312.3,282.6L315.1,279.4L318.0,301.1L320.8,306.5L323.6,325.8L326.4,330.9L329.3,313.6L332.1,327.4L334.9,372.8L337.7,350.3L340.5,323.8L343.4,316.9L346.2,306.0L349.0,345.2L351.8,316.3L354.6,332.9L357.5,333.8L360.3,316.4L363.1,321.7L365.9,306.2L368.8,329.9L371.6,340.7L374.4,339.7L377.2,331.9L380.0,311.8L382.9,288.3L385.7,285.7L388.5,279.8L391.3,290.3L394.2,298.9L397.0,274.9L399.8,286.3L402.6,310.3L405.4,315.4L408.3,312.5L411.1,329.8L413.9,302.0L416.7,272.8L419.5,286.8L422.4,295.8L425.2,302.1L428.0,318.8L430.8,320.3L433.7,306.8L436.5,312.9L439.3,330.0L442.1,298.2L444.9,308.3L447.8,277.0L450.6,275.5" fill="none" stroke="#b45309" stroke-width="1.2"/>
<path d="M64.0,387.6L66.8,383.8L69.6,377.0L72.5,376.9L75.3,373.3L78.1,378.0L80.9,381.5L83.8,377.8L86.6,387.6L89.4,382.3L92.2,378.7L95.0,384.1L97.9,386.6L100.7,376.5L103.5,370.1L106.3,377.7L109.1,368.5L112.0,379.5L114.8,383.5L117.6,373.2L120.4,377.2L123.3,366.5L126.1,361.1L128.9,367.3L131.7,368.5L134.5,372.1L137.4,353.9L140.2,370.9L143.0,364.9L145.8,377.0L148.7,372.3L151.5,370.1L154.3,385.5L157.1,377.6L159.9,360.8L162.8,373.3L165.6,374.7L168.4,371.0L171.2,367.9L174.1,367.4L176.9,365.4L179.7,376.0L182.5,365.8L185.3,368.5L188.2,376.2L191.0,362.8L193.8,373.5L196.6,375.8L199.4,377.2L202.3,378.5L205.1,370.3L207.9,372.0L210.7,366.1L213.6,380.1L216.4,369.1L219.2,376.6L222.0,384.4L224.8,379.6L227.7,380.5L230.5,384.6L233.3,375.6L236.1,382.5L239.0,389.2L241.8,384.6L244.6,397.5L247.4,394.9L250.2,386.6L253.1,384.0L255.9,384.5L258.7,377.8M261.5,389.6L264.3,390.1L267.2,399.1L270.0,388.3L272.8,392.5L275.6,394.8L278.5,401.7L281.3,404.0L284.1,399.1L286.9,411.9L289.7,400.6L292.6,408.3L295.4,414.3L298.2,399.6L301.0,402.0L303.9,393.8L306.7,399.8L309.5,386.9L312.3,402.8L315.1,397.8L318.0,398.6L320.8,410.9L323.6,404.9L326.4,404.7L329.3,401.5L332.1,398.4L334.9,408.5L337.7,400.6L340.5,405.6L343.4,398.9L346.2,395.7L349.0,394.5L351.8,387.2L354.6,389.4L357.5,389.1L360.3,393.9L363.1,388.9L365.9,386.5L368.8,383.4L371.6,377.4L374.4,383.2L377.2,386.8L380.0,388.5L382.9,392.3L385.7,388.9L388.5,392.4L391.3,388.4L394.2,387.7L397.0,394.5L399.8,393.1L402.6,395.1L405.4,388.2L408.3,385.5L411.1,389.6L413.9,386.7L416.7,389.0L419.5,386.0L422.4,392.4L425.2,387.9L428.0,392.9L430.8,395.7L433.7,397.6L436.5,391.4L439.3,383.7L442.1,385.9L444.9,395.9L447.8,386.6L450.6,393.8" fill="none" stroke="#0d9488" stroke-width="1.2"/>
<text x="64" y="248" font-size="11">아래: Empty Exports(주황) vs Loaded Exports(청록), TEU. 2020-11 제외(원본 Total 셀 오타). 출처: Port of Los Angeles (credit). 빈티지: 2026-09-09 수집 현재본.</text>
</svg>
