<svg xmlns="http://www.w3.org/2000/svg" viewBox="0 0 960 380" role="img" aria-labelledby="title desc">
<title id="title">KGLS Galveston Scholes visibility observations</title>
<desc id="desc">Airport observations only; arrows show lower bounds, not exact visibility. No WTI or port-operation inference.</desc>
<rect width="960" height="380" fill="#f8fafc"/>
<g font-family="sans-serif" font-size="14" fill="#172554">
<text x="60" y="32">KGLS / Galveston Scholes: reported visibility (statute miles)</text>
<text x="60" y="56">OBSERVATION DEMO - airport only; no port, tanker or oil-price inference</text>
<path d="M60 280.0 H900" stroke="#cbd5e1"/><text x="20" y="285.0">0</text>
<path d="M60 195.0 H900" stroke="#cbd5e1"/><text x="20" y="200.0">6</text>
<path d="M60 110.0 H900" stroke="#cbd5e1"/><text x="20" y="115.0">12</text>
<circle cx="60.0" cy="138.33333333333334" r="4" fill="#0369a1"><title>2026-09-07T05:52:00+00:00 | 10+ SM (lower_bound)</title></circle>
<path d="M60.0 138.33333333333334 v-18 m-4 6 l4 -6 l4 6" stroke="#0369a1" fill="none"/>
<circle cx="96.52173913043478" cy="138.33333333333334" r="4" fill="#0369a1"><title>2026-09-07T06:52:00+00:00 | 10+ SM (lower_bound)</title></circle>
<path d="M96.52173913043478 138.33333333333334 v-18 m-4 6 l4 -6 l4 6" stroke="#0369a1" fill="none"/>
<circle cx="105.65217391304347" cy="138.33333333333334" r="4" fill="#0369a1"><title>2026-09-07T07:07:00+00:00 | 10+ SM (lower_bound)</title></circle>
<path d="M105.65217391304347 138.33333333333334 v-18 m-4 6 l4 -6 l4 6" stroke="#0369a1" fill="none"/>
<circle cx="115.3913043478261" cy="138.33333333333334" r="4" fill="#0369a1"><title>2026-09-07T07:23:00+00:00 | 10+ SM (lower_bound)</title></circle>
<path d="M115.3913043478261 138.33333333333334 v-18 m-4 6 l4 -6 l4 6" stroke="#0369a1" fill="none"/>
<circle cx="121.47826086956522" cy="138.33333333333334" r="4" fill="#0369a1"><title>2026-09-07T07:33:00+00:00 | 10+ SM (lower_bound)</title></circle>
<path d="M121.47826086956522 138.33333333333334 v-18 m-4 6 l4 -6 l4 6" stroke="#0369a1" fill="none"/>
<circle cx="133.04347826086956" cy="138.33333333333334" r="4" fill="#0369a1"><title>2026-09-07T07:52:00+00:00 | 10+ SM (lower_bound)</title></circle>
<path d="M133.04347826086956 138.33333333333334 v-18 m-4 6 l4 -6 l4 6" stroke="#0369a1" fill="none"/>
<circle cx="141.56521739130434" cy="138.33333333333334" r="4" fill="#0369a1"><title>2026-09-07T08:06:00+00:00 | 10+ SM (lower_bound)</title></circle>
<path d="M141.56521739130434 138.33333333333334 v-18 m-4 6 l4 -6 l4 6" stroke="#0369a1" fill="none"/>
<circle cx="169.56521739130434" cy="138.33333333333334" r="4" fill="#0369a1"><title>2026-09-07T08:52:00+00:00 | 10+ SM (lower_bound)</title></circle>
<path d="M169.56521739130434 138.33333333333334 v-18 m-4 6 l4 -6 l4 6" stroke="#0369a1" fill="none"/>
<circle cx="206.08695652173913" cy="138.33333333333334" r="4" fill="#0369a1"><title>2026-09-07T09:52:00+00:00 | 10+ SM (lower_bound)</title></circle>
<path d="M206.08695652173913 138.33333333333334 v-18 m-4 6 l4 -6 l4 6" stroke="#0369a1" fill="none"/>
<circle cx="242.6086956521739" cy="138.33333333333334" r="4" fill="#0369a1"><title>2026-09-07T10:52:00+00:00 | 10+ SM (lower_bound)</title></circle>
<path d="M242.6086956521739 138.33333333333334 v-18 m-4 6 l4 -6 l4 6" stroke="#0369a1" fill="none"/>
<circle cx="279.1304347826087" cy="138.33333333333334" r="4" fill="#0369a1"><title>2026-09-07T11:52:00+00:00 | 10+ SM (lower_bound)</title></circle>
<path d="M279.1304347826087 138.33333333333334 v-18 m-4 6 l4 -6 l4 6" stroke="#0369a1" fill="none"/>
<circle cx="315.6521739130435" cy="138.33333333333334" r="4" fill="#0369a1"><title>2026-09-07T12:52:00+00:00 | 10+ SM (lower_bound)</title></circle>
<path d="M315.6521739130435 138.33333333333334 v-18 m-4 6 l4 -6 l4 6" stroke="#0369a1" fill="none"/>
<circle cx="352.17391304347825" cy="138.33333333333334" r="4" fill="#0369a1"><title>2026-09-07T13:52:00+00:00 | 10+ SM (lower_bound)</title></circle>
<path d="M352.17391304347825 138.33333333333334 v-18 m-4 6 l4 -6 l4 6" stroke="#0369a1" fill="none"/>
<circle cx="388.69565217391306" cy="138.33333333333334" r="4" fill="#0369a1"><title>2026-09-07T14:52:00+00:00 | 10+ SM (lower_bound)</title></circle>
<path d="M388.69565217391306 138.33333333333334 v-18 m-4 6 l4 -6 l4 6" stroke="#0369a1" fill="none"/>
<circle cx="425.2173913043478" cy="138.33333333333334" r="4" fill="#0369a1"><title>2026-09-07T15:52:00+00:00 | 10+ SM (lower_bound)</title></circle>
<path d="M425.2173913043478 138.33333333333334 v-18 m-4 6 l4 -6 l4 6" stroke="#0369a1" fill="none"/>
<circle cx="461.7391304347826" cy="138.33333333333334" r="4" fill="#0369a1"><title>2026-09-07T16:52:00+00:00 | 10+ SM (lower_bound)</title></circle>
<path d="M461.7391304347826 138.33333333333334 v-18 m-4 6 l4 -6 l4 6" stroke="#0369a1" fill="none"/>
<circle cx="498.2608695652174" cy="138.33333333333334" r="4" fill="#0369a1"><title>2026-09-07T17:52:00+00:00 | 10+ SM (lower_bound)</title></circle>
<path d="M498.2608695652174 138.33333333333334 v-18 m-4 6 l4 -6 l4 6" stroke="#0369a1" fill="none"/>
<circle cx="534.7826086956522" cy="138.33333333333334" r="4" fill="#0369a1"><title>2026-09-07T18:52:00+00:00 | 10+ SM (lower_bound)</title></circle>
<path d="M534.7826086956522 138.33333333333334 v-18 m-4 6 l4 -6 l4 6" stroke="#0369a1" fill="none"/>
<circle cx="571.304347826087" cy="138.33333333333334" r="4" fill="#0369a1"><title>2026-09-07T19:52:00+00:00 | 10+ SM (lower_bound)</title></circle>
<path d="M571.304347826087 138.33333333333334 v-18 m-4 6 l4 -6 l4 6" stroke="#0369a1" fill="none"/>
<circle cx="607.8260869565217" cy="138.33333333333334" r="4" fill="#0369a1"><title>2026-09-07T20:52:00+00:00 | 10+ SM (lower_bound)</title></circle>
<path d="M607.8260869565217 138.33333333333334 v-18 m-4 6 l4 -6 l4 6" stroke="#0369a1" fill="none"/>
<circle cx="644.3478260869565" cy="138.33333333333334" r="4" fill="#0369a1"><title>2026-09-07T21:52:00+00:00 | 10+ SM (lower_bound)</title></circle>
<path d="M644.3478260869565 138.33333333333334 v-18 m-4 6 l4 -6 l4 6" stroke="#0369a1" fill="none"/>
<circle cx="680.8695652173913" cy="138.33333333333334" r="4" fill="#0369a1"><title>2026-09-07T22:52:00+00:00 | 10+ SM (lower_bound)</title></circle>
<path d="M680.8695652173913 138.33333333333334 v-18 m-4 6 l4 -6 l4 6" stroke="#0369a1" fill="none"/>
<circle cx="717.3913043478261" cy="138.33333333333334" r="4" fill="#0369a1"><title>2026-09-07T23:52:00+00:00 | 10+ SM (lower_bound)</title></circle>
<path d="M717.3913043478261 138.33333333333334 v-18 m-4 6 l4 -6 l4 6" stroke="#0369a1" fill="none"/>
<circle cx="753.9130434782609" cy="138.33333333333334" r="4" fill="#0369a1"><title>2026-09-08T00:52:00+00:00 | 10+ SM (lower_bound)</title></circle>
<path d="M753.9130434782609 138.33333333333334 v-18 m-4 6 l4 -6 l4 6" stroke="#0369a1" fill="none"/>
<circle cx="790.4347826086956" cy="138.33333333333334" r="4" fill="#0369a1"><title>2026-09-08T01:52:00+00:00 | 10+ SM (lower_bound)</title></circle>
<path d="M790.4347826086956 138.33333333333334 v-18 m-4 6 l4 -6 l4 6" stroke="#0369a1" fill="none"/>
<circle cx="826.9565217391304" cy="138.33333333333334" r="4" fill="#0369a1"><title>2026-09-08T02:52:00+00:00 | 10+ SM (lower_bound)</title></circle>
<path d="M826.9565217391304 138.33333333333334 v-18 m-4 6 l4 -6 l4 6" stroke="#0369a1" fill="none"/>
<circle cx="863.4782608695652" cy="138.33333333333334" r="4" fill="#0369a1"><title>2026-09-08T03:52:00+00:00 | 10+ SM (lower_bound)</title></circle>
<path d="M863.4782608695652 138.33333333333334 v-18 m-4 6 l4 -6 l4 6" stroke="#0369a1" fill="none"/>
<circle cx="900.0" cy="138.33333333333334" r="4" fill="#0369a1"><title>2026-09-08T04:52:00+00:00 | 10+ SM (lower_bound)</title></circle>
<path d="M900.0 138.33333333333334 v-18 m-4 6 l4 -6 l4 6" stroke="#0369a1" fill="none"/>
<text x="60" y="310">2026-09-07T05:52:00+00:00</text>
<text x="645" y="310">2026-09-08T04:52:00+00:00</text>
<text x="60" y="340">UTC; arrows = reported bounds. No line interpolation. Missing values omitted, counted in receipt.</text>
<text x="60" y="365">Source: NOAA/NWS Aviation Weather Center. LS CRUDE derived research graphic; not an official product.</text></g></svg>
